<?xml version="1.0" encoding="UTF-8" standalone="no"?>
<svg width="1000" height="1000" viewBox="0 0 1000 1000" fill="none" xmlns="http://www.w3.org/2000/svg">
<rect width="1000" height="1000" rx="400" fill="#66595C"/>
<g filter="url(#filter0_d_0_1)">
<path fill-rule="evenodd" clip-rule="evenodd" d="M557.037 560.667C590.542 560.667 617.703 533.505 617.703 500C617.703 466.495 590.542 439.333 557.037 439.333C523.532 439.333 496.37 466.495 496.37 500C496.37 533.505 523.532 560.667 557.037 560.667ZM557.037 616.667C621.47 616.667 673.703 564.433 673.703 500C673.703 435.567 621.47 383.333 557.037 383.333C492.604 383.333 440.37 435.567 440.37 500C440.37 564.433 492.604 616.667 557.037 616.667Z" fill="#EAEAEA"/>
<path fill-rule="evenodd" clip-rule="evenodd" d="M645.185 648.815C727.373 648.815 794 582.188 794 500C794 417.812 727.373 351.185 645.185 351.185C562.997 351.185 496.37 417.812 496.37 500C496.37 582.188 562.997 648.815 645.185 648.815ZM645.185 704.815C758.301 704.815 850 613.116 850 500C850 386.884 758.301 295.185 645.185 295.185C532.069 295.185 440.37 386.884 440.37 500C440.37 613.116 532.069 704.815 645.185 704.815Z" fill="#EAEAEA"/>
<path fill-rule="evenodd" clip-rule="evenodd" d="M500 794C662.372 794 794 662.372 794 500C794 337.628 662.372 206 500 206C337.628 206 206 337.628 206 500C206 662.372 337.628 794 500 794ZM500 850C693.3 850 850 693.3 850 500C850 306.7 693.3 150 500 150C306.7 150 150 306.7 150 500C150 693.3 306.7 850 500 850Z" fill="#EAEAEA"/>
</g>
<defs>
<filter id="filter0_d_0_1" x="146" y="150" width="708" height="708" filterUnits="userSpaceOnUse" color-interpolation-filters="sRGB">
<feFlood flood-opacity="0" result="BackgroundImageFix"/>
<feColorMatrix in="SourceAlpha" type="matrix" values="0 0 0 0 0 0 0 0 0 0 0 0 0 0 0 0 0 0 127 0" result="hardAlpha"/>
<feOffset dy="4"/>
<feGaussianBlur stdDeviation="2"/>
<feComposite in2="hardAlpha" operator="out"/>
<feColorMatrix type="matrix" values="0 0 0 0 0 0 0 0 0 0 0 0 0 0 0 0 0 0 0.25 0"/>
<feBlend mode="normal" in2="BackgroundImageFix" result="effect1_dropShadow_0_1"/>
<feBlend mode="normal" in="SourceGraphic" in2="effect1_dropShadow_0_1" result="shape"/>
</filter>
</defs>
</svg>
